<svg width="800" height="800" viewBox="0 0 800 800" fill="none" xmlns="http://www.w3.org/2000/svg">
<g id="Curiosity emblem / square">
<rect width="800" height="800" fill="#F3F0E7"/>
<g id="The curiosity machine / original vector illustration" clip-path="url(#clip0_1_94)">
<g id="Orbital system / build, break, understand" clip-path="url(#clip1_1_94)">
<g id="Group">
<path id="Vector" d="M70 230H718M70 330H718M70 430H718M70 530H718M150 194V602M250 194V602M350 194V602M450 194V602M550 194V602M650 194V602" stroke="#152925" stroke-opacity="0.08"/>
<path id="Vector_2" d="M410 568C505.545 568 583 490.545 583 395C583 299.455 505.545 222 410 222C314.455 222 237 299.455 237 395C237 490.545 314.455 568 410 568Z" stroke="#152925" stroke-opacity="0.18"/>
<path id="Vector_3" d="M410 603C524.875 603 618 509.875 618 395C618 280.125 524.875 187 410 187C295.125 187 202 280.125 202 395C202 509.875 295.125 603 410 603Z" stroke="#152925" stroke-opacity="0.35" stroke-dasharray="2 10"/>
<path id="Vector_4" d="M86 396H728M410 184V608" stroke="#152925" stroke-opacity="0.25"/>
<path id="Vector_5" d="M458.659 494.766C609.065 421.408 709.208 317.273 682.334 262.174C655.461 207.074 511.747 221.876 361.341 295.234C210.934 368.592 110.792 472.727 137.665 527.826C164.539 582.926 308.253 568.124 458.659 494.766Z" stroke="#152925" stroke-width="1.5"/>
<path id="Vector_6" d="M333.4 533.19C461.405 604.144 599.469 599.795 641.774 523.475C684.079 447.154 614.605 327.765 486.6 256.81C358.595 185.856 220.531 190.205 178.226 266.525C135.921 342.846 205.395 462.235 333.4 533.19Z" stroke="#152925" stroke-width="1.5"/>
<path id="Vector_7" d="M410 521C479.588 521 536 464.588 536 395C536 325.412 479.588 269 410 269C340.412 269 284 325.412 284 395C284 464.588 340.412 521 410 521Z" fill="#F16C45" stroke="#152925" stroke-width="2"/>
<path id="Vector_8" d="M410 521C436.51 521 458 464.588 458 395C458 325.412 436.51 269 410 269C383.49 269 362 325.412 362 395C362 464.588 383.49 521 410 521Z" stroke="#152925" stroke-width="1.5"/>
<path id="Vector_9" d="M410 521C460.81 521 502 464.588 502 395C502 325.412 460.81 269 410 269C359.19 269 318 325.412 318 395C318 464.588 359.19 521 410 521Z" stroke="#152925" stroke-width="1.5"/>
<path id="Vector_10" d="M289 361C369.667 394.333 450.333 394.333 531 361M286 394C368.667 434 451.333 434 534 394M292 429C370.667 469 449.333 469 528 429M306 326C375.333 348 444.667 348 514 326M322 297C380.667 312.333 439.333 312.333 498 297M316 473C378.667 501.667 441.333 501.667 504 473" stroke="#152925" stroke-width="1.5"/>
<path id="Vector_11" d="M357 388L390 355M375 422L442 355M413 422L446 389" stroke="#F3F0E7" stroke-width="12"/>
<path id="Vector_12" d="M158 319C167.941 319 176 310.941 176 301C176 291.059 167.941 283 158 283C148.059 283 140 291.059 140 301C140 310.941 148.059 319 158 319Z" fill="#C6D8B0" stroke="#152925" stroke-width="2"/>
<path id="Vector_13" d="M640 549C646.627 549 652 543.627 652 537C652 530.373 646.627 525 640 525C633.373 525 628 530.373 628 537C628 543.627 633.373 549 640 549Z" fill="#EDD18A" stroke="#152925" stroke-width="2"/>
<path id="Vector_14" d="M605 265C608.866 265 612 261.866 612 258C612 254.134 608.866 251 605 251C601.134 251 598 254.134 598 258C598 261.866 601.134 265 605 265Z" fill="#152925" stroke="#152925"/>
<path id="Vector_15" d="M139 535H177M158 516V554M679 378H703M691 366V390" stroke="#152925" stroke-width="2"/>
<path id="Vector_16" d="M231 223L238 238L255 241L242 252L244 269L231 260L216 267L221 250L210 238L227 237L231 223Z" fill="#EDD18A" stroke="#152925" stroke-width="2"/>
</g>
</g>
<g id="Terminal cube, pen nib, and trust shield">
<g id="Group_2">
<path id="Vector_17" d="M120 421L211 385L295 432L205 469L120 421Z" fill="#F3F0E7" stroke="#152925" stroke-width="2" stroke-linejoin="round"/>
<path id="Vector_18" d="M120 421V510L205 557V469L120 421Z" fill="#C6D8B0" stroke="#152925" stroke-width="2" stroke-linejoin="round"/>
<path id="Vector_19" d="M205 469L295 432V522L205 557V469Z" fill="#152925" stroke="#152925" stroke-width="2" stroke-linejoin="round"/>
<path id="Vector_20" d="M134 453L155 476L134 477M169 490L189 501" stroke="#152925" stroke-width="4" stroke-linejoin="round"/>
<g id="Vector_21">
<path d="M236 479L269 466ZM236 497L269 484ZM236 515L256 507Z" fill="black"/>
<path d="M236 479L269 466M236 497L269 484M236 515L256 507" stroke="#C6D8B0" stroke-width="3" stroke-linejoin="round"/>
</g>
<path id="Vector_22" d="M605 258L666 283L649 356L587 409L562 338L605 258Z" fill="#C6D8B0" stroke="#152925" stroke-width="2" stroke-linejoin="round"/>
<path id="Vector_23" d="M605 258L613 352M613 352L587 409M613 352L666 283" stroke="#152925" stroke-width="2" stroke-linejoin="round"/>
<path id="Vector_24" d="M613 359C616.866 359 620 355.866 620 352C620 348.134 616.866 345 613 345C609.134 345 606 348.134 606 352C606 355.866 609.134 359 613 359Z" fill="#152925" stroke="#152925" stroke-width="2" stroke-linejoin="round"/>
<path id="Vector_25" d="M578 424L608 417M569 441L599 434" stroke="#152925" stroke-width="2" stroke-linejoin="round"/>
<path id="Vector_26" d="M554 481L590 468L626 481V518C626 548 590 563 590 563C590 563 554 548 554 518V481Z" fill="#EDD18A" stroke="#152925" stroke-width="2" stroke-linejoin="round"/>
<path id="Vector_27" d="M574 516L586 528L608 500" stroke="#152925" stroke-width="4" stroke-linejoin="round"/>
<path id="Vector_28" d="M345 233C355 203 386 205 392 229C374 231 362 238 354 252C378 263 397 258 410 242" stroke="#152925" stroke-width="2" stroke-linejoin="round"/>
</g>
</g>
</g>
</g>
<defs>
<clipPath id="clip0_1_94">
<rect width="708" height="460" fill="white" transform="translate(46 170)"/>
</clipPath>
<clipPath id="clip1_1_94">
<rect width="708" height="460" fill="white" transform="translate(46 170)"/>
</clipPath>
</defs>
</svg>
